inDegrees=yes
name=ik_MT_2026-07-10_09h47_01210270-000-000_orientations
DataType=double
version=3
OpenSimVersion=4.5
endheader
time	pelvis_tilt	pelvis_list	pelvis_rotation	pelvis_tx	pelvis_ty	pelvis_tz	hip_flexion_r	hip_adduction_r	hip_rotation_r	knee_angle_r	knee_angle_r_beta	ankle_angle_r	subtalar_angle_r	mtp_angle_r	hip_flexion_l	hip_adduction_l	hip_rotation_l	knee_angle_l	knee_angle_l_beta	ankle_angle_l	subtalar_angle_l	mtp_angle_l	lumbar_extension	lumbar_bending	lumbar_rotation	arm_flex_r	arm_add_r	arm_rot_r	elbow_flex_r	pro_sup_r	wrist_flex_r	wrist_dev_r	arm_flex_l	arm_add_l	arm_rot_l	elbow_flex_l	pro_sup_l	wrist_flex_l	wrist_dev_l
0	0.06008526788463941	-0.02088634564177667	171.8560827545359	0	0.9399999999999999	0	0.05151214546890735	-0.01312164223360048	0.0151127826528403	-0.01613117675920861	-0.0002815421466693787	0.002636794220144429	0	0	0.05417059901821781	0.01250217770490279	0.01412201497110265	-0.02266396793482639	-0.0003955608620291401	0.003177064318922664	0	0	0.1452589831451463	-0.01109297408660855	-0.005130199293935233	-0.5163595114164434	-0.08225930384301404	-0.007422935839336915	0.8575369492522034	15.15841161765731	0	0	-0.5198468280641082	-0.0973937618424604	-0.009645644972953267	0.8554651203138309	15.15841161765731	0	0
0.025	0.07372389908627554	-0.009455595837767774	171.830847347998	0	0.9399999999999999	0	0.07803831434843579	-0.00051395139201259	0.008536365984548811	-0.005439422174818931	-9.493582635658094e-05	-0.004518848819124393	0	0	0.08044396179679815	-0.003351631626449637	-0.007735782846694773	-0.01502172812561535	-0.0002621786151314243	-0.001186195871539029	0	0	0.1183250050050581	-0.007515647844650992	0.001107893095112447	-0.505715033161554	-0.109511908235846	-0.05683341613116898	0.8126855600444067	19.83923438511458	0	0	-0.4861095010268316	-0.09653938116570374	-0.03986148627532454	0.8381397295821226	19.83923438511458	0	0
0.05	0.08270245930153286	-0.01646009194061353	171.8031072663907	0	0.9399999999999999	0	0.07090339715341938	-0.01219909231900748	0.02803120145969703	-0.01807279292619261	-0.0003154297415932016	0.03119257947199039	0	0	0.06923239407550817	0.001403373752553712	-0.03030640405369181	-0.02625048987610212	-0.0004581574785994204	0.03010857153850042	0	0	0.173226862517203	-0.01733034176010191	-0.005414883965311875	-0.5929937750081987	-0.1288380663309035	-0.105347224485344	0.7930090356981624	24.0254573121853	0	0	-0.5577970975388209	-0.1021862226715674	-0.05427415182211959	0.8430616743222749	24.0254573121853	0	0
0.075	0.08598568824568505	-0.01519158814052075	171.763991779898	0	0.9399999999999999	0	0.1204104093889857	-0.01138950008760867	0.06668197224206804	-0.00290521654773795	-5.070559424145025e-05	-0.01274732566179243	0	0	0.1028214843988672	-0.001510748098311432	-0.05266749990771527	-0.01712352261317092	-0.0002988618491395359	-0.01300946534918303	0	0	0.1025525588704027	-0.02535482167914302	-0.005553066815638	-0.5429673343918797	-0.1412399392251251	-0.1333023054687823	0.7622560549531076	27.47755474008653	0	0	-0.4907790843946985	-0.09556369413758664	-0.03727571165703705	0.8289678983082522	27.47755474008653	0	0
0.1	0.0966703357172846	-0.02099709282579361	171.7311579876078	0	0.9399999999999999	0	0.1263841810527316	-0.02008744379006649	0.09403444727134394	-0.001985775866455751	-3.465832707629608e-05	0.01794170426717798	0	0	0.1011661546008849	0.005949631422051145	-0.06901385344212009	-0.03110850939438491	-0.0005429459143196039	0.01485170256813871	0	0	0.1124856007342096	-0.02362194320961408	-0.002031713077252221	-0.5790702923020493	-0.178894768193741	-0.1683823243437511	0.7514686052405111	30.33991304546485	0	0	-0.5023336622566794	-0.1073626677177212	0.02165681783541129	0.826818766380619	30.33991304546485	0	0
0.125	0.08594679398113798	-0.02207046773519222	171.6951476461421	0	0.9399999999999999	0	0.1446796754222291	-0.03965478124721888	0.103901848625271	0.01716982641637392	0.0002996700029616238	-0.00701657932332215	0	0	0.113373489668286	0.01799883859653425	-0.1118858637917263	-0.01993163860894881	-0.0003478727190437792	-0.0147730353479573	0	0	0.08013708606344144	-0.009984199570541617	0.02186044728294234	-0.5925575047808725	-0.2177470672172449	-0.2120583273482775	0.7466797402385578	32.65528482250643	0	0	-0.4892525794132042	-0.1255559105319963	0.06688960938317193	0.816840300609906	32.65528482250643	0	0
0.15	0.1049744260696445	-0.02761348447747265	171.6733372754249	0	0.9399999999999999	0	0.1623661693731121	-0.03366002549040762	0.12862882909627	0.02335107027087336	0.0004075530600913043	0.02390621918340971	0	0	0.1249757845513565	0.007893806209967179	-0.1188025165065738	-0.02994106045603759	-0.0005225700864965308	0.01182741138942628	0	0	0.1085079663811703	-0.03517054609256123	0.04435328318724106	-0.6120830576605603	-0.2379573779788274	-0.2742307344019754	0.7264656677511259	34.49929766776441	0	0	-0.487367835588885	-0.1215177400949272	0.06747247744063438	0.8076367319527965	34.49929766776441	0	0
0.175	0.09610426998477911	-0.01414453729427774	171.6521462911306	0	0.9399999999999999	0	0.1905045895473648	-0.03620171760690525	0.1145143300327575	0.05897436238087318	0.001029296797810519	-0.005211910414393614	0	0	0.1293888162124047	0.001938884594869886	-0.148559065606963	-0.01898662640119212	-0.0003313791445468843	-0.01566056650272001	0	0	0.0284361398427432	-0.02677555408676244	0.02677381337058682	-0.5364995320253116	-0.2611885727071961	-0.2706836254409681	0.704181262662274	36.04212359839851	0	0	-0.3953120371125883	-0.1341600439289968	-0.008204212311757773	0.7924437991445429	36.04212359839851	0	0
